<svg width="443" height="168" viewBox="0 0 443 168" fill="none" xmlns="http://www.w3.org/2000/svg">
<path d="M13.4008 53.8466C12.939 53.8267 12.8018 53.8209 12.4472 53.7937C11.9115 53.7539 11.5082 53.7109 10.9569 53.6322C8.67927 53.3081 6.66873 52.5821 5.05803 51.5014C4.19585 50.9226 3.40362 50.2051 2.75883 49.4176C1.5761 47.9736 0.773686 46.2405 0.324691 44.161C0.168395 43.4381 0.0403527 42.5073 0 41.8047C0 41.7266 0 41.6452 0 41.6242C0 41.6043 0 41.4509 0 41.2882C0 41.1254 0 40.9747 0 40.9522C0 40.9323 0 40.7444 0 40.5394V40.1664H4.76109H9.52218L9.52253 40.2775C9.5231 40.4514 9.55105 41.0152 9.56242 41.2072C9.63631 42.1283 9.81538 42.9381 10.0876 43.5756C10.6341 44.8531 11.5894 45.6695 12.9353 46.0073C13.8722 46.2429 14.739 46.2539 15.6251 46.047C16.8473 45.754 17.7272 45.0403 18.1202 44.0231C18.2396 43.7135 18.3049 43.4424 18.3589 43.0325C18.3873 42.8581 18.3873 42.1915 18.3586 42.0255C18.2392 41.1576 17.8327 40.4912 17.1129 39.9769C16.6261 39.629 16.0086 39.3804 15.3354 39.2608C14.9245 39.1866 14.9601 39.1865 13.2707 39.1826L11.6965 39.177V35.999L11.6993 32.8211L13.586 32.8154C15.5758 32.8097 15.5964 32.8098 16.0701 32.7413C17.7305 32.5145 18.6335 31.7974 18.8609 30.5266C18.9347 30.1211 18.929 29.8459 18.8324 29.4084C18.7443 29.0181 18.5709 28.633 18.3447 28.338C17.8349 27.6705 16.9715 27.2471 15.8262 27.1041C15.51 27.0644 15.2565 27.0514 14.8189 27.0514C14.3486 27.0498 14.1832 27.0571 13.8476 27.1182C13.5947 27.1645 13.429 27.2035 13.1625 27.2935C11.6947 27.7909 10.7235 28.9525 10.5035 30.474C10.4751 30.6448 10.4494 30.9892 10.4494 31.1149V31.1678H5.8708H1.29217V31.0632C1.29246 30.9407 1.33208 30.3802 1.34629 30.167C1.58215 27.6632 2.38584 25.6017 3.77176 23.9346C5.76438 21.5378 8.96428 20.061 12.9262 19.7093C13.2888 19.6837 13.3794 19.6694 13.6849 19.6498C14.2225 19.6242 15.1329 19.61 15.6316 19.6356C16.697 19.6819 17.4406 19.746 18.3173 19.8702C20.6072 20.195 22.5978 20.8896 24.1236 21.8952C25.4526 22.7713 26.4538 23.8579 27.1981 25.2321C27.4822 25.7554 27.7655 26.4389 27.9414 27.0193C27.9699 27.1194 28.0097 27.2488 28.0296 27.3076L28.058 27.4148L28.0594 23.8937L28.0608 20.3725H34.982H41.9028V20.4253C41.9028 20.4781 42.2028 21.637 42.3267 22.1405C42.4006 22.4342 42.8691 24.3401 43.2394 25.8395C43.4923 26.8569 43.9313 28.6415 44.0657 29.1897C44.1254 29.4258 44.3385 30.2959 44.542 31.1231C44.7466 31.9501 44.9672 32.8473 45.0332 33.1168C45.1014 33.3859 45.2805 34.1205 45.4362 34.7482C45.9873 36.9803 46.055 37.2582 46.3281 38.3667C46.4787 38.9831 46.6066 39.4938 46.6094 39.5012C46.6109 39.5069 46.6778 39.2606 46.7517 38.951C46.8284 38.6408 46.9874 37.9883 47.1076 37.5008C47.4449 36.1288 47.7082 35.0579 47.9873 33.9226C48.2317 32.9263 48.4177 32.1702 48.8667 30.3445C48.9803 29.8861 49.1664 29.1253 49.2829 28.6527C49.5046 27.7446 49.8601 26.3016 50.2164 24.8528C50.6523 23.0816 50.7173 22.816 50.827 22.3691C51.0202 21.5788 51.292 20.4779 51.3053 20.4254V20.3725H58.2262H65.1466V36.7665V53.1606L60.4643 53.1578L55.782 53.155V42.8614C55.782 37.1999 55.782 32.5739 55.782 32.5739C55.782 32.5739 55.782 32.5882 55.782 32.5939C55.782 32.6081 55.7049 32.9232 55.1846 35.0308C55.0937 35.4038 54.8843 36.2495 54.7215 36.9104C54.5595 37.5712 54.3296 38.502 54.2119 38.9782C54.0954 39.4545 53.939 40.0799 53.8685 40.3679C53.7946 40.6556 53.6723 41.1603 53.5927 41.4889C53.5131 41.8176 53.3825 42.3462 53.3038 42.6638C53.0088 43.8618 52.6887 45.1594 52.5142 45.8661C52.4148 46.269 52.1972 47.1508 52.0307 47.8264C51.863 48.502 51.6437 49.3962 51.5405 49.8134C51.4382 50.2308 51.2172 51.1246 51.0503 51.7997C50.8827 52.4753 50.7424 53.0506 50.7336 53.0787V53.1316H46.6334H42.5331L42.4932 52.9807C42.4648 52.898 42.3682 52.4673 42.2573 52.024C42.0357 51.1195 41.7535 49.9752 41.5722 49.2313C41.504 48.9582 41.3904 48.4898 41.3166 48.1907C41.2427 47.8917 41.1206 47.3992 41.0467 47.0964C40.9728 46.7935 40.8649 46.3526 40.808 46.1162C40.7 45.6718 40.3271 44.1533 40.1271 43.3437C40.0674 43.0891 39.9424 42.5965 39.86 42.2494C39.7747 41.9022 39.6381 41.3495 39.5585 41.0209C39.3766 40.2824 39.0065 38.7729 38.9164 38.4026C38.8766 38.2517 38.7543 37.7439 38.6406 37.2748C38.382 36.2246 38.1191 35.1504 37.7946 33.8241C37.6582 33.2672 37.5272 32.741 37.5073 32.656L37.4678 32.5011L37.4664 42.8163L37.4647 53.1313H32.773H28.0802L28.0799 49.9794L28.0795 46.8275L28.0056 47.0154C27.6768 47.8775 27.1686 48.7094 26.488 49.4993C26.2862 49.7315 25.8365 50.1859 25.5913 50.4024C23.9439 51.8551 21.7389 52.8909 19.1356 53.4346C18.1941 53.6318 17.0681 53.7766 16.0809 53.8289C15.9246 53.8345 15.7691 53.8431 15.7319 53.8488C15.6154 53.863 13.7004 53.8629 13.4625 53.8544L13.4008 53.8466ZM28.0257 33.3673V31.3366L27.9463 31.5582C27.5183 32.7617 27.0345 33.6011 26.3801 34.2749C25.8933 34.7769 25.3708 35.1461 24.6373 35.5086L24.3109 35.6701L24.4361 35.7228C24.7245 35.8399 24.9738 35.9724 25.2822 36.174C26.3339 36.8614 27.3005 37.9967 27.9532 39.312L28.0271 39.457L28.0299 37.429C28.0313 36.3136 28.0313 34.4871 28.0299 33.3702L28.0257 33.3673Z" fill="#D8DBDE"/>
<path d="M246.242 53.5686C241.878 53.2359 238.698 51.8294 236.9 49.438C235.612 47.7233 234.923 45.5398 234.9 43.0932V41.9094H232.818H230.736L230.492 43.0701C230.358 43.7084 229.828 46.1986 229.315 48.6037L228.383 52.9766L224.741 53.0023C221.533 53.0279 221.099 53.0079 221.099 52.8653C221.099 52.7013 223.33 42.3007 223.421 42.0391C223.461 41.9306 222.984 41.9081 221.132 41.9314L218.796 41.9569L215.272 47.4637L211.749 52.9702L208.596 52.9959L205.443 53.0214L205.441 47.702C205.44 44.7764 205.407 42.2735 205.373 42.1399C205.308 41.9018 205.277 41.8973 203.703 41.8973C202.129 41.8973 202.097 41.9029 202.037 42.1399C202.003 42.2735 201.304 44.7635 200.484 47.6734L198.991 52.9641L195.24 52.9896C191.95 53.0152 191.496 52.9955 191.55 52.8568C191.584 52.7681 192.301 50.3259 193.143 47.4297C193.985 44.5334 194.696 42.103 194.724 42.0287C194.764 41.9216 192.941 41.8938 185.829 41.8952L176.882 41.8964L175.214 47.4559L173.545 53.0153H169.852H166.16L166.314 52.5026C166.399 52.2207 167.152 49.74 167.989 46.9903C168.826 44.2406 169.488 41.9687 169.461 41.9417C169.433 41.9161 166.715 41.9018 163.419 41.9217L157.425 41.9474L159.173 45.5644C160.135 47.5538 161.338 50.0439 161.848 51.098L162.775 53.0144H158.674H154.573L151.814 47.4539L149.055 41.8933H148.585H148.116L147.897 42.6221C146.644 46.8136 144.775 52.9259 144.735 52.9664C144.706 52.992 143.18 53.0062 141.342 52.9863L138 52.9608L141.81 40.3819L145.621 27.803L145.622 13.9015L145.622 0H160.577H175.531V12.2009V24.4019H176.772H178.014V12.2009V0H192.968H207.923V12.1469V24.2939H209.11H210.298V12.1469V0H225.306H240.315V14.4779V28.9558L241.499 27.8396L242.682 26.7233V13.3616V0H257.691H272.699V20.9455V41.891L268.521 41.9165L264.344 41.9422L263.09 46.9588L261.837 51.9755L260.708 52.2171C255.638 53.3022 249.919 53.8281 246.242 53.5474L246.242 53.5686ZM253.231 47.7913C253.932 47.7006 254.653 47.6001 254.833 47.5677L255.161 47.5082L255.835 44.7898C256.205 43.2945 256.507 42.0347 256.506 41.9902C256.504 41.9439 253.622 41.9094 250.1 41.9094H243.698L243.777 42.6923C244.062 45.4948 245.651 47.2076 248.514 47.7923C249.479 47.9896 251.7 47.9894 253.231 47.7913ZM172.158 33.2985L174.443 25.7673V13.4315V1.09566H160.568H146.693L146.722 12.7297L146.75 24.3638L150.07 24.3895C151.896 24.4037 153.391 24.4422 153.391 24.4746C153.391 24.5076 152.614 27.0891 151.665 30.2155C150.716 33.342 149.952 35.9136 149.969 35.9302C149.998 35.9501 150.531 35.3872 151.182 34.6866C151.832 33.9859 154.259 31.3882 156.575 28.914L160.786 24.4155L165.361 24.4153L169.937 24.4151L162.986 31.439C159.164 35.3022 155.996 38.5212 155.947 38.5922C155.894 38.6704 156.055 39.1385 156.353 39.7741L156.847 40.8269H163.361H169.874L172.159 33.2957L172.158 33.2985ZM195.267 40.1267C195.383 39.7398 196.464 36.023 197.67 31.8667L199.862 24.3098H203.349H206.835V12.7028V1.09566H192.961H179.086V12.7028V24.3098L183.27 24.3102C187.695 24.3106 189.397 24.4108 190.711 24.7461C192.77 25.2726 194.105 26.5378 194.593 28.424C195.074 30.2816 194.622 33.6336 193.604 35.7502C192.599 37.843 191.068 39.3144 188.757 40.4103L187.886 40.8236L191.471 40.8266L195.056 40.8293L195.267 40.1267ZM205.323 36.0429C205.323 33.4102 205.289 31.2213 205.247 31.1788C205.207 31.139 204.58 33.181 203.86 35.7226C203.139 38.2643 202.515 40.4533 202.472 40.5869L202.396 40.8295H203.86H205.325L205.323 36.0429ZM217.426 32.5763L222.673 24.3768L228.547 24.4097C231.779 24.424 234.429 24.4495 234.438 24.4561C234.438 24.4703 233.683 28.0937 232.741 32.5178C231.799 36.942 231.027 40.6226 231.025 40.6968C231.025 40.8 231.491 40.8318 233.019 40.8318C234.974 40.8318 235.016 40.8261 235.016 40.6056C235.016 40.4811 235.115 39.8861 235.238 39.2829C235.728 36.8475 237.009 33.7592 238.454 31.5288L239.12 30.5005V15.799V1.09757H225.299H211.479V20.9713V40.8453L211.829 40.8124C212.168 40.7794 212.367 40.4882 217.427 32.579L217.426 32.5763ZM224.677 36.0533C225.248 33.4263 225.706 31.2682 225.696 31.2574C225.667 31.2375 220.317 39.585 219.813 40.4181L219.563 40.8295H221.601H223.639L224.677 36.0533ZM251.117 38.5354L251.698 36.2408L258.743 36.2153C262.618 36.2011 265.787 36.2011 265.786 36.2153C265.784 36.2295 265.521 37.2756 265.204 38.5374L264.626 40.832H268.068H271.511V20.9649V1.09774H257.69H243.87V13.5092V25.9208L244.617 25.4901C246.925 24.1592 250.055 23.2267 253.306 22.9011C254.994 22.7317 258.796 22.8251 260.174 23.0692C262.485 23.4786 264.237 24.2725 265.415 25.445C266.761 26.7853 267.26 28.1315 267.156 30.1427C267.122 30.7664 267.033 31.5193 266.957 31.8162L266.815 32.3558L262.646 32.3815L258.478 32.407L258.418 31.5493C258.293 29.7176 257.313 28.7979 255.188 28.5159C253.511 28.2931 251.874 28.602 250.222 29.4522C247.783 30.7073 245.848 33.1948 244.646 36.6217C244.226 37.8189 243.869 39.4768 243.869 40.2308V40.8267H247.202H250.535L251.117 38.5354ZM183.567 36.6788C184.608 36.4492 185.557 35.958 186.102 35.3665C187.01 34.3816 187.901 31.9272 187.81 30.6628C187.75 29.8194 187.427 29.4756 186.443 29.2045C185.843 29.0391 185.316 29.0068 183.201 29.0068H180.676L179.683 32.7318C179.137 34.7806 178.651 36.5733 178.605 36.7157L178.52 36.9743L180.665 36.9081C181.957 36.8683 183.111 36.7794 183.567 36.6788Z" fill="#D8DBDE"/>
<path d="M345.699 31.0927V8.56348H390.779H435.859L435.025 9.42082C434.566 9.89045 433.705 10.7846 433.111 11.4043C432.517 12.0261 431.503 13.0817 430.856 13.7551C430.209 14.4284 428.606 16.1032 427.293 17.477C425.979 18.8508 424.375 20.5257 423.729 21.199C423.082 21.873 422.089 22.9089 421.521 23.5015C420.331 24.745 418.68 26.4667 417.199 28.0085C416.631 28.6038 415.133 30.1641 413.871 31.4844C410.804 34.6917 409.924 35.6098 408.475 37.1165C407.802 37.817 406.768 38.8958 406.178 39.5135C405.588 40.1287 404.554 41.2121 403.878 41.9138C403.203 42.6156 402.147 43.7183 401.531 44.3652C400.915 45.0134 399.881 46.0915 399.233 46.7655C397.776 48.2788 394.153 52.0675 393.31 52.9604L392.685 53.622H369.192H345.699V31.0927ZM361.189 42.2545C362.477 42.1221 363.71 41.8378 364.769 41.4218C365.586 41.1043 366.887 40.3905 367.004 40.2007C367.038 40.1345 367.104 40.1015 367.155 40.1015C367.209 40.1015 367.154 40.3332 367.041 40.6175C366.93 40.9019 366.733 41.4072 366.606 41.7439L366.372 42.3591H369.642H372.91L373.465 40.6935C373.77 39.7781 374.054 39.0287 374.095 39.0287C374.135 39.0287 374.43 39.1213 374.748 39.227C377.169 40.069 379.628 40.1021 382.053 39.3262C382.567 39.1608 383.012 39.0286 383.042 39.0286C383.076 39.0286 383.347 39.7781 383.652 40.6935L384.207 42.3589H389.34H394.472L394.501 39.5425L394.529 36.7268L396.684 36.6605C399.13 36.5943 399.57 36.5151 400.994 35.8424C404.859 34.0135 406.682 29.5654 405.262 25.4275C404.38 22.8558 402.2 20.8629 399.427 20.0936C398.675 19.8819 398.446 19.8754 393.771 19.8421L388.898 19.7759L388.87 28.6709L388.841 37.5652L385.28 28.6761L381.72 19.7872H378.464H375.208L375.089 20.0451C375.024 20.184 374.6 21.2563 374.148 22.4204C373.694 23.5845 372.658 26.2341 371.844 28.3084C371.03 30.3827 370.157 32.619 369.905 33.2778C369.485 34.3738 369.299 34.7013 369.299 34.3441C369.299 34.2714 369.126 33.8613 368.912 33.436C367.996 31.6038 366.221 30.4402 363.03 29.5784C358.293 28.2992 356.957 27.5617 356.957 26.2283C356.957 25.0158 358.108 24.4576 360.581 24.4688C362.317 24.4688 364.443 24.7863 365.804 25.2355C366.062 25.3216 366.296 25.3678 366.323 25.3411C366.352 25.3411 366.724 24.3959 367.157 23.2986C367.589 22.2013 367.964 21.254 367.99 21.1945C368.075 20.9896 366.608 20.5047 365.088 20.2315C363.034 19.8611 359.842 19.6958 358.201 19.8744C355.172 20.2051 353.011 21.512 351.96 23.6531C351.552 24.4839 351.374 25.2763 351.374 26.2539C351.374 28.0067 352.001 29.5213 353.243 30.7701C354.32 31.8536 355.325 32.3199 358.268 33.1057C359.501 33.4365 360.724 33.785 360.986 33.8849C362.337 34.4008 362.835 34.983 362.75 35.9586C362.722 36.2496 362.127 36.7205 361.521 36.9215C359.303 37.6551 355.602 37.2655 353.38 36.0597C353.015 35.8613 352.819 35.8018 352.793 35.881C352.765 35.9473 352.439 37.0305 352.053 38.2938L351.352 40.5905L351.562 40.7623C351.894 41.0334 353.285 41.5323 354.402 41.7843C356.444 42.2473 359.161 42.4193 361.183 42.2142L361.189 42.2545ZM376.719 34.7783C375.583 34.3946 375.554 34.7782 377.043 30.4855C377.76 28.4218 378.388 26.6234 378.437 26.4884C378.508 26.2966 378.542 26.2701 378.605 26.3892C378.65 26.4685 379.29 28.2744 380.032 30.3982L381.38 34.2604L381.161 34.4392C380.427 35.0345 378.009 35.2188 376.719 34.7783ZM394.479 28.2427V25.3924L396.217 25.4587C398.221 25.5249 398.558 25.5976 399.309 26.349C400.438 27.4774 400.426 29.0972 399.281 30.2487C398.503 31.0312 398.172 31.1226 396.125 31.1226H394.477L394.479 28.2427Z" fill="#D8DBDE"/>
<path d="M23.3594 167.864C13.6824 166.81 5.42645 160.519 1.81147 151.443C0.578439 148.347 0.011367 145.351 0 141.874C0 139.338 0.201844 137.554 0.772181 135.303C2.0234 130.371 4.88701 125.63 8.61679 122.317C12.6941 118.695 17.1949 116.6 22.6604 115.781C24.0778 115.569 28.307 115.569 29.7241 115.781C34.6236 116.516 38.8309 118.315 42.4891 121.24C47.7397 125.44 51.1417 131.364 52.1198 138.013C52.4543 140.29 52.4483 143.321 52.1198 145.662C51.9038 147.123 51.3603 149.291 50.8537 150.704C50.3603 152.08 49.1076 154.628 48.3255 155.846C45.7284 159.891 42.1931 163.088 37.9645 165.215C35.1106 166.651 32.0973 167.536 28.9304 167.868C27.4729 168.021 24.801 168.019 23.3753 167.866L23.3594 167.864ZM28.6567 165.192C34.3053 164.673 40.0542 161.693 43.8451 157.321C44.9201 156.081 46.1783 154.327 46.0478 154.249C45.9938 154.216 43.8157 153.332 31.162 148.2C27.9767 146.909 26.2031 146.23 26.0693 146.251C25.9556 146.271 22.7961 147.544 19.0464 149.084C15.2968 150.625 10.889 152.435 9.25126 153.107L6.27354 154.33L6.68253 154.923C9.78855 159.432 14.0038 162.598 19.0482 164.21C22.1477 165.201 25.1833 165.511 28.6567 165.192ZM11.3479 148.339C14.5431 145.841 18.3307 142.88 19.7652 141.76C21.1997 140.639 22.4011 139.68 22.4349 139.628C22.469 139.575 23.1628 134.74 23.9775 128.881L25.4584 118.228L24.9221 118.268C20.9425 118.565 17.6741 119.53 14.524 121.336C9.02099 124.492 4.95316 129.825 3.39503 135.927C2.93154 137.742 2.74086 139.157 2.68772 141.176C2.58542 145.01 3.31192 148.441 4.97235 151.98C5.20537 152.476 5.42739 152.881 5.46632 152.881C5.50611 152.881 8.15262 150.837 11.3479 148.339ZM47.2501 152.244C48.4172 149.919 49.1797 147.395 49.5292 144.7C49.6997 143.391 49.7224 140.48 49.5747 139.205C49.0561 134.753 47.2618 130.443 44.4965 127.008C40.4391 121.966 34.4701 118.819 27.9997 118.31C27.4575 118.27 27.0031 118.244 26.9889 118.257C26.9434 118.303 29.9399 139.613 29.9978 139.666C30.0319 139.691 32.9181 141.95 36.4191 144.68C39.9202 147.409 43.7086 150.369 44.8382 151.257C45.9675 152.145 46.9004 152.873 46.9112 152.876C46.9112 152.878 47.0728 152.595 47.2501 152.244ZM86.6463 149.842C84.5701 149.551 83.1788 148.152 82.7136 145.891C82.2302 143.542 82.6739 140.969 83.8015 139.575C84.4008 138.835 84.9379 138.451 85.7836 138.158C86.5534 137.892 87.9753 137.894 88.7537 138.161C90.4496 138.746 91.4217 140.332 91.6027 142.809C91.6368 143.248 91.6425 143.624 91.6311 143.644C91.6027 143.664 90.0115 143.684 88.0765 143.684H84.558V144.361C84.558 144.734 84.612 145.371 84.6774 145.778C85.0596 148.13 86.0771 149.136 87.9399 149.002C89.2636 148.908 90.1638 148.027 90.5426 146.456L90.6762 145.903L91.1875 145.902L91.6984 145.902L91.653 146.169C91.3276 148.041 90.323 149.264 88.7433 149.71C88.1613 149.875 87.2723 149.932 86.6522 149.845L86.6463 149.842ZM89.6108 142.079C89.5426 141.345 89.2955 140.33 89.0659 139.855C88.8528 139.412 88.398 138.948 88.028 138.793C87.866 138.726 87.4929 138.671 87.1965 138.671C86.2777 138.671 85.7149 139.063 85.2182 140.05C84.9795 140.526 84.6864 141.596 84.6017 142.305L84.5563 142.696H87.1125H89.6684L89.6108 142.079ZM106.232 149.84C104.381 149.553 102.977 148.117 102.46 145.979C102.007 144.106 102.235 141.953 103.061 140.355C103.398 139.699 104.404 138.697 105.019 138.402C106.448 137.717 108.153 137.811 109.124 138.629C109.258 138.742 109.397 138.835 109.429 138.835C109.463 138.835 109.628 138.575 109.8 138.256C110.079 137.74 110.138 137.679 110.331 137.701L110.547 137.727V139.739V141.752H110.269H109.99L109.757 140.999C109.42 139.914 108.976 139.285 108.305 138.939C107.398 138.472 106.406 138.609 105.696 139.299C104.735 140.233 104.272 142.347 104.443 145.018C104.546 146.619 104.857 147.606 105.476 148.291C105.96 148.827 106.327 148.978 107.142 148.978C107.7 148.978 107.907 148.945 108.174 148.8C108.88 148.424 109.42 147.583 109.645 146.511C109.71 146.207 109.796 145.924 109.835 145.883C109.875 145.843 110.111 145.817 110.353 145.83L110.797 145.856L110.768 146.144C110.734 146.557 110.44 147.511 110.202 147.98C109.949 148.48 109.347 149.132 108.896 149.396C108.218 149.794 107.117 149.976 106.229 149.838L106.232 149.84ZM116.548 149.838C114.982 149.595 113.805 148.742 113.156 147.377C112.62 146.25 112.519 145.693 112.527 143.928C112.527 142.168 112.652 141.576 113.231 140.397C114.161 138.503 116.101 137.597 118.251 138.053C119.683 138.357 120.749 139.404 121.221 140.971C121.383 141.512 121.595 142.845 121.596 143.333L121.596 143.682H118.011H114.426L114.48 144.601C114.619 146.914 115.232 148.278 116.356 148.783C116.714 148.944 116.926 148.978 117.57 148.979C118.241 148.98 118.414 148.953 118.809 148.765C119.386 148.494 119.803 148.08 120.108 147.476C120.324 147.046 120.413 146.785 120.562 146.126C120.607 145.91 120.635 145.899 121.104 145.899C121.671 145.899 121.67 145.899 121.471 146.683C121.151 147.94 120.351 148.989 119.351 149.462C118.582 149.826 117.453 149.978 116.548 149.838ZM119.577 142.306C119.361 140.398 119.002 139.497 118.243 138.964C117.953 138.76 117.793 138.712 117.317 138.685C116.596 138.645 116.152 138.802 115.702 139.255C115.142 139.821 114.709 140.944 114.567 142.199L114.508 142.697H117.063H119.618L119.577 142.306ZM127.039 149.798C124.664 149.158 123.258 146.462 123.572 143.149C123.731 141.481 124.279 140.169 125.206 139.245C126.021 138.434 126.819 138.103 127.969 138.099C129.161 138.096 129.691 138.408 130.674 139.698C130.788 139.846 130.796 139.625 130.777 137.439C130.748 134.904 130.731 134.75 130.379 134.561C130.288 134.515 129.955 134.451 129.641 134.424C129.085 134.378 129.071 134.372 129.071 134.15C129.071 133.933 129.099 133.921 129.584 133.868C130.126 133.809 132.392 133.376 132.628 133.286C132.759 133.233 132.767 133.717 132.767 140.581C132.767 145.747 132.796 148.006 132.858 148.19C132.975 148.524 133.246 148.661 133.938 148.734C134.474 148.794 134.492 148.801 134.492 149.02C134.492 149.245 134.492 149.248 133.691 149.347C133.25 149.4 132.541 149.537 132.113 149.645C131.686 149.752 131.31 149.814 131.277 149.78C131.243 149.747 131.149 149.35 131.067 148.9L130.916 148.081L130.745 148.368C130.472 148.829 130.062 149.257 129.667 149.489C128.96 149.903 127.895 150.028 127.039 149.798ZM129.125 148.953C130.299 148.354 130.896 146.359 130.764 143.477C130.628 140.493 129.845 138.994 128.352 138.86C126.844 138.724 126.022 139.772 125.697 142.245C125.574 143.172 125.651 145.725 125.819 146.481C126.243 148.358 127.079 149.246 128.338 149.155C128.59 149.135 128.944 149.045 129.125 148.953ZM139.464 149.837C137.361 149.513 136.035 148.177 135.521 145.868C135.388 145.27 135.328 143.909 135.399 143.098C135.666 140.028 137.255 138.137 139.712 137.958C142.546 137.753 144.184 139.491 144.468 143.004L144.522 143.682H140.931H137.34L137.386 144.606C137.5 146.864 138.108 148.233 139.241 148.787C139.558 148.942 139.761 148.974 140.444 148.977C141.138 148.979 141.332 148.951 141.698 148.785C142.524 148.411 143.242 147.361 143.402 146.289L143.462 145.9H143.986C144.356 145.9 144.511 145.933 144.511 146.005C144.511 146.251 144.159 147.348 143.942 147.779C143.457 148.739 142.5 149.501 141.472 149.744C140.901 149.88 140.005 149.922 139.464 149.837ZM142.458 142.306C142.457 141.745 142.177 140.472 141.945 139.967C141.52 139.043 140.977 138.671 140.048 138.671C138.634 138.671 137.763 139.843 137.466 142.142L137.395 142.696H139.927H142.459L142.458 142.306ZM146.484 147.871V145.818H146.76C147.03 145.818 147.038 145.832 147.183 146.367C147.507 147.561 148.062 148.353 148.883 148.792C149.187 148.954 149.357 148.98 150.098 148.98C150.874 148.98 151.002 148.96 151.371 148.762C152.117 148.366 152.557 147.693 152.561 146.944C152.561 146.076 152.078 145.569 150.611 144.912C147.271 143.417 146.741 142.953 146.666 141.456C146.62 140.586 146.765 140.033 147.2 139.416C147.778 138.594 148.73 138.116 149.951 138.037C150.824 137.978 151.467 138.104 152.188 138.467L152.715 138.732L152.894 138.25C153.056 137.815 153.099 137.768 153.311 137.768H153.547V139.657V141.546H153.261C153.014 141.546 152.969 141.513 152.929 141.32C152.69 140.14 152.37 139.5 151.84 139.139C150.733 138.385 148.961 138.803 148.445 139.94C148.246 140.377 148.24 141.149 148.445 141.477C148.664 141.848 149.323 142.241 150.982 142.987C152.766 143.79 153.089 143.971 153.534 144.417C154.396 145.278 154.531 146.722 153.868 147.972C153.126 149.37 151.297 150.108 149.441 149.758C149.019 149.679 148.034 149.246 147.685 148.986C147.529 148.87 147.506 148.891 147.237 149.394C146.993 149.852 146.923 149.924 146.724 149.924H146.494L146.484 147.871ZM179.138 149.837C177.174 149.535 175.876 148.302 175.299 146.187C175.146 145.619 175.12 145.318 175.12 143.97C175.12 142.168 175.231 141.595 175.815 140.41C176.751 138.505 178.687 137.597 180.84 138.053C182.662 138.439 183.749 139.865 184.1 142.327C184.146 142.643 184.183 143.077 184.183 143.292L184.184 143.682H180.611H177.038L177.039 144.072C177.039 144.287 177.079 144.795 177.124 145.202C177.413 147.751 178.266 148.894 179.961 149.003C181.641 149.112 182.734 148.127 183.155 146.126C183.2 145.91 183.223 145.9 183.694 145.9C184.158 145.9 184.185 145.914 184.185 146.096C184.185 146.406 183.865 147.374 183.589 147.895C183.317 148.41 182.554 149.174 182.062 149.425C181.322 149.803 180.067 149.98 179.138 149.837ZM182.171 142.265C181.949 140.301 181.453 139.206 180.617 138.827C180.169 138.623 179.327 138.624 178.887 138.828C178.137 139.176 177.56 140.129 177.282 141.479C177.193 141.9 177.122 142.346 177.122 142.47L177.122 142.696H179.671H182.22L182.171 142.265ZM63.1957 149.329C63.1957 149.033 63.1957 149.021 63.4798 149.021C63.9572 149.021 64.5907 148.85 64.8067 148.664C64.9204 148.567 65.0423 148.348 65.0821 148.179C65.1219 148.009 65.2728 144.996 65.4217 141.484C65.6576 135.875 65.6774 135.07 65.5751 134.86C65.3818 134.466 65.0789 134.305 64.3554 134.208L63.6911 134.119V133.812V133.505L65.2722 133.519C66.1421 133.525 67.1111 133.517 67.4257 133.493L67.9977 133.454L70.154 139.327C71.3402 142.557 72.3401 145.266 72.3759 145.347C72.4213 145.452 73.0864 143.764 74.6948 139.453L76.949 133.411L77.24 133.471C77.3991 133.504 78.3537 133.531 79.3588 133.531L81.1862 133.529V133.823V134.117L80.5223 134.205C80.1051 134.258 79.7773 134.354 79.6394 134.456C79.1694 134.804 79.1824 134.522 79.3293 141.33C79.4032 144.768 79.4855 147.747 79.5111 147.95C79.5992 148.656 79.9159 148.901 80.8525 148.988L81.4339 149.041V149.364V149.688L80.592 149.62C80.1288 149.58 79.1402 149.551 78.3948 149.551C77.6494 149.551 76.6608 149.584 76.1976 149.62L75.3553 149.688V149.364V149.041L75.9357 148.988C76.6495 148.922 77.1021 148.705 77.2445 148.362C77.3298 148.158 77.338 147.194 77.284 143.573C77.2499 141.079 77.199 138.199 77.1706 137.173L77.1165 135.308L74.835 141.486C73.5801 144.883 72.4398 148.007 72.3002 148.428C72.0644 149.145 72.0361 149.19 71.8375 149.167C71.6414 149.141 71.5787 149.009 70.9404 147.211C69.9779 144.506 66.6294 135.438 66.5658 135.364C66.5374 135.331 66.4068 138.184 66.2744 141.705C66.0527 147.641 66.0443 148.129 66.1665 148.386C66.337 148.744 66.7105 148.919 67.4524 148.988L68.0387 149.04V149.337V149.633H65.616H63.193L63.1957 149.329ZM93.0288 149.388C93.0572 149.148 93.0686 149.141 93.6123 149.087C94.2886 149.02 94.537 148.872 94.656 148.465C94.7157 148.253 94.7383 146.78 94.7213 143.744L94.6928 139.331L94.5055 139.145C94.3492 138.989 94.2114 138.954 93.6587 138.929L92.9986 138.896L93.027 138.638L93.0555 138.38L93.6712 138.32C94.2168 138.267 95.6298 138.012 96.1029 137.881C96.2678 137.835 96.2791 137.878 96.3843 138.879L96.4894 139.925L96.6885 139.535C97.7834 137.38 101.009 137.445 101.358 139.628C101.423 140.043 101.281 140.561 101.037 140.789C100.615 141.185 99.8742 141.166 99.515 140.75C99.3388 140.545 99.3247 140.475 99.3759 139.996C99.4412 139.356 99.316 139.111 98.8954 139.032C98.0662 138.876 97.3474 139.564 96.9487 140.893C96.7753 141.467 96.7638 141.683 96.7325 144.827C96.6984 148.378 96.7326 148.664 97.0805 148.899C97.1885 148.971 97.529 149.053 97.837 149.084C98.3838 149.137 98.3966 149.143 98.4205 149.385L98.449 149.632H95.7307H93.0128L93.0288 149.388ZM185.335 149.408C185.335 149.165 185.375 149.148 186.11 149.062C186.591 149.009 186.873 148.841 186.984 148.55C187.038 148.418 187.055 146.649 187.043 143.874C187.015 138.646 187.111 139.1 186.048 139.02C185.431 138.973 185.419 138.967 185.419 138.75C185.419 138.531 185.419 138.524 186.352 138.351C186.866 138.255 187.585 138.089 187.951 137.983L188.615 137.791L188.661 138.003C188.72 138.266 188.862 139.395 188.865 139.594C188.866 139.694 189.024 139.574 189.365 139.209C190.232 138.283 191.052 137.956 192.318 138.032C193.836 138.123 194.875 138.862 195.378 140.209C195.546 140.658 195.557 140.862 195.602 144.581C195.631 146.727 195.682 148.549 195.719 148.63C195.824 148.855 196.25 149.039 196.794 149.092C197.269 149.138 197.287 149.151 197.311 149.386L197.339 149.633H194.703H192.068L192.096 149.386C192.125 149.151 192.142 149.138 192.591 149.089C193.132 149.03 193.448 148.854 193.566 148.544C193.62 148.405 193.64 146.957 193.62 144.544C193.592 140.474 193.586 140.438 193.141 139.81C192.553 138.984 190.767 138.946 189.905 139.741C189.468 140.144 189.227 140.687 189.114 141.521C188.989 142.457 189.046 148.425 189.185 148.666C189.33 148.92 189.577 149.034 190.105 149.091C190.537 149.137 190.561 149.15 190.584 149.386L190.612 149.633H187.98H185.348L185.335 149.408ZM161.284 149.289L161.313 148.976L161.832 148.916C162.593 148.832 162.904 148.707 163.085 148.411C163.238 148.162 163.241 147.915 163.244 141.598C163.244 134.307 163.272 134.665 162.694 134.423C162.532 134.356 162.145 134.28 161.833 134.253L161.264 134.207L161.293 133.87L161.321 133.534L165.018 133.539C169.066 133.545 169.42 133.579 170.37 134.039C171.02 134.352 171.737 135.076 172.041 135.725C172.541 136.796 172.551 138.148 172.069 139.158C171.791 139.735 171.051 140.464 170.428 140.776L169.942 141.018L170.505 141.196C171.842 141.617 172.778 142.664 173.077 144.075C173.236 144.823 173.224 145.345 173.031 146.091C172.703 147.375 171.937 148.379 170.852 148.946C169.725 149.536 169.748 149.533 165.283 149.569L161.273 149.602L161.301 149.289L161.284 149.289ZM169.106 148.542C170.402 147.946 171.059 146.583 170.936 144.746C170.842 143.343 170.365 142.402 169.541 141.999C168.939 141.704 168.351 141.625 166.751 141.625L165.376 141.624V144.957V148.29L165.623 148.537L165.87 148.783L167.287 148.758C168.55 148.732 168.746 148.71 169.106 148.542ZM168.594 140.605C169.057 140.434 169.666 139.815 169.894 139.282C170.139 138.709 170.25 137.9 170.193 137.098C170.125 136.143 169.891 135.527 169.41 135.042C168.88 134.509 168.467 134.4 166.752 134.338L165.376 134.292V137.557V140.822L166.793 140.789C167.861 140.763 168.304 140.718 168.594 140.611V140.605ZM198.231 149.559C198.231 149.539 199.673 147.154 201.435 144.253C203.196 141.352 204.638 138.961 204.638 138.941C204.638 138.921 203.779 138.915 202.728 138.926C200.925 138.952 200.799 138.966 200.468 139.139C200.036 139.37 199.743 139.766 199.334 140.674C199.03 141.348 199.008 141.375 198.748 141.375C198.6 141.375 198.478 141.355 198.478 141.329C198.478 141.238 198.98 138.456 199.022 138.315C199.061 138.181 199.331 138.172 203.161 138.172C205.414 138.172 207.274 138.197 207.295 138.231C207.324 138.264 205.912 140.621 204.175 143.467C202.437 146.313 200.978 148.71 200.931 148.793C200.852 148.938 200.931 148.942 202.64 148.916C204.412 148.89 204.439 148.883 204.902 148.658C205.563 148.333 205.954 147.796 206.405 146.593C206.59 146.099 206.757 145.967 207.054 146.081C207.148 146.114 207.014 146.997 206.532 149.566C206.532 149.599 198.232 149.586 198.232 149.552L198.231 149.559ZM155.684 143.185V142.528H158.394H161.105V143.185V143.842H158.394H155.684V143.185Z" fill="#D8DBDE"/>
<path d="M248 158.62C248 158.551 248.402 157.489 248.874 156.26C249.655 154.227 249.778 154.01 250.233 153.867C250.508 153.781 252.604 153.014 254.893 152.164C260.434 150.104 265.307 148.014 270.457 145.487L274.702 143.405L275.7 141.973C276.887 140.271 278.441 138.308 279.914 136.647C280.503 135.984 280.914 135.441 280.827 135.441C280.739 135.441 277.455 136.222 273.525 137.177C259.531 140.578 258.035 140.942 256.268 141.381C255.285 141.625 254.441 141.785 254.394 141.738C254.3 141.645 255.419 138.434 255.613 138.236C255.718 138.13 258.094 137.591 264.964 136.117C266.2 135.852 268.447 135.368 269.958 135.041C271.468 134.714 274.465 134.071 276.616 133.611C278.768 133.151 281.427 132.58 282.525 132.341L284.523 131.907L285.605 130.871C290.091 126.576 293.535 124.122 295.075 124.122C295.874 124.122 296.682 124.73 296.84 125.45C296.974 126.057 296.57 127.675 296.009 128.78C295.776 129.239 295.608 129.615 295.633 129.615C295.662 129.615 301.331 128.492 308.237 127.118C320.081 124.764 321.601 124.522 320.969 125.098C320.719 125.328 309.353 128.345 298.698 131.012L293.73 132.255L293.14 132.974C292.113 134.223 288.907 137.306 287.267 138.621C285.227 140.256 282.612 142.032 279.697 143.763C276.919 145.412 276.918 145.412 276.309 146.492C275.085 148.663 274.621 151.137 275.185 152.486C276.111 154.704 280.242 155.079 285.187 153.395C289.579 151.899 295.601 148.981 302.541 144.987C304.028 144.131 305.283 143.431 305.329 143.431C306.069 143.431 302.993 145.818 297.923 149.177C292.151 153.003 287.043 155.538 282.949 156.608C281.15 157.078 278.181 157.192 276.716 156.846C274.483 156.319 272.767 154.941 272.194 153.216C271.838 152.146 271.836 149.99 272.194 148.849C272.333 148.395 272.424 148 272.393 147.97C272.364 147.944 270.686 148.739 268.667 149.746C262.937 152.607 255.386 155.968 249.905 158.097C248.161 158.775 247.982 158.824 248.006 158.621L248 158.62ZM280.941 140.344C281.761 139.837 283.023 138.984 283.744 138.449C286.131 136.679 290.125 133.074 289.433 133.313C289.294 133.359 288.306 133.604 287.232 133.853L285.281 134.307L284.128 135.498C282.368 137.317 279.1 141.267 279.355 141.267C279.409 141.267 280.12 140.851 280.941 140.344ZM290.678 130.614C291.566 130.432 292.361 130.24 292.445 130.187C292.948 129.876 294.744 126.714 294.536 126.505C294.49 126.459 294.111 126.653 293.696 126.938C292.016 128.094 288.61 130.946 288.91 130.946C288.995 130.946 289.79 130.797 290.678 130.614ZM417.386 149.574C415.321 149.357 411.613 148.25 411.613 147.852C411.613 147.64 412.695 144.365 412.846 144.122C412.891 144.04 413.595 144.22 414.398 144.522C417.292 145.609 420.524 145.876 422.044 145.155C422.76 144.815 423.177 143.992 422.944 143.378C422.606 142.491 421.68 142.07 418.48 141.351C415.068 140.584 413.663 139.793 412.712 138.105C412.241 137.269 412.196 137.058 412.196 135.687C412.196 134.326 412.241 134.082 412.743 133.073C413.356 131.829 414.22 130.988 415.518 130.375C418.059 129.174 421.806 128.987 425.401 129.883C426.632 130.19 428.259 130.858 428.259 131.057C428.259 131.368 426.828 134.606 426.69 134.608C426.605 134.608 426.057 134.417 425.47 134.182C421.807 132.717 418.271 133.121 418.271 135.006C418.271 135.91 418.757 136.162 421.999 136.935C426.181 137.933 427.747 138.76 428.671 140.458C429.296 141.605 429.44 143.447 429.013 144.806C428.147 147.558 425.384 149.238 421.143 149.589C420.067 149.679 419.074 149.743 418.937 149.732C418.8 149.718 418.102 149.65 417.386 149.574ZM391.472 149.34C389.355 148.865 388.464 148.431 387.368 147.342C385.788 145.772 385.812 145.927 385.812 137.242V129.948H388.714H391.616L391.669 136.898C391.709 142.238 391.775 143.947 391.945 144.278C392.273 144.918 393.045 145.293 394.233 145.389C395.6 145.498 396.681 145.199 397.218 144.561L397.63 144.071V137.01V129.948H400.548H403.466L403.42 137.651L403.375 145.355L402.951 146.182C402.353 147.348 400.86 148.447 399.088 149.024C397.887 149.415 397.392 149.479 395.135 149.527C393.3 149.567 392.241 149.513 391.472 149.34ZM323.724 141.604V133.943H320.894H318.064V131.945V129.948H326.559H335.053L335.008 131.904L334.962 133.86L332.176 133.906L329.39 133.952L329.35 141.564L329.31 149.175L326.522 149.221L323.734 149.268L323.724 141.604ZM342.444 149.051C342.404 148.935 342.385 144.609 342.41 139.436L342.45 130.031L349.233 129.991L356.016 129.952V131.865C356.016 133.71 356.016 133.781 355.642 133.871C355.437 133.917 353.638 133.942 351.646 133.911L348.026 133.864L348.026 135.484V137.103L351.314 137.15L354.601 137.196L354.647 139.152L354.692 141.108H351.358H348.023V143.102V145.097L351.977 145.136L355.93 145.176V147.174V149.171L349.225 149.211C343.951 149.244 342.504 149.21 342.441 149.045L342.444 149.051ZM365.449 149.146C365.39 149.087 365.338 144.74 365.338 139.491V129.948H368.251H371.164V137.605V145.262H375.243H379.321V147.259V149.257H372.441C368.656 149.257 365.51 149.211 365.449 149.146ZM437.402 137.19C436.532 136.912 435.601 136.083 435.195 135.227C434.824 134.445 434.84 132.881 435.229 132.027C435.599 131.214 436.509 130.386 437.335 130.114C438.328 129.786 439.922 129.966 440.724 130.497C442.123 131.423 442.767 133.271 442.244 134.855C441.628 136.723 439.358 137.817 437.402 137.19ZM440.2 136.083C441.374 135.356 441.816 133.258 441.035 132.11C440.432 131.225 439.854 130.892 438.79 130.818C437.987 130.765 437.736 130.815 437.252 131.144C436.326 131.773 435.916 132.517 435.916 133.568C435.916 135.039 436.6 136.043 437.879 136.449C438.511 136.65 439.546 136.481 440.2 136.083ZM437.081 133.61V131.446H438.257C439.915 131.446 440.403 131.739 440.408 132.736C440.41 133.264 439.94 133.943 439.57 133.943C439.474 133.943 439.61 134.261 439.874 134.65C440.649 135.795 440.645 135.774 440.101 135.774C439.687 135.774 439.524 135.639 439.094 134.942C438.755 134.389 438.47 134.109 438.248 134.109C437.958 134.109 437.914 134.219 437.914 134.942C437.914 135.718 437.885 135.774 437.498 135.774H437.082L437.081 133.61ZM439.41 133.029C439.782 132.581 439.484 132.278 438.668 132.278C437.941 132.278 437.914 132.298 437.914 132.777C437.914 133.246 437.953 133.277 438.559 133.277C438.927 133.277 439.293 133.171 439.41 133.029Z" fill="#D8DBDE"/>
</svg>
