<svg width="9" height="16" viewBox="0 0 9 16" fill="none" xmlns="http://www.w3.org/2000/svg">
<path d="M1.62485 0.374977C1.48865 0.370679 1.35305 0.396215 1.2264 0.450084C1.09975 0.503952 0.984867 0.584998 0.888504 0.688217C0.701008 0.889148 0.595703 1.16163 0.595703 1.44576C0.595703 1.72988 0.701008 2.00241 0.888504 2.20334L6.18179 7.87453L0.888504 13.5458C0.701032 13.7467 0.595703 14.0191 0.595703 14.3033C0.595703 14.5874 0.701032 14.8599 0.888504 15.0608C1.07604 15.2617 1.33035 15.3745 1.59554 15.3745C1.86073 15.3745 2.11504 15.2617 2.30258 15.0608L8.3029 8.63211C8.49037 8.43117 8.5957 8.15865 8.5957 7.87453C8.5957 7.59041 8.49037 7.31793 8.3029 7.11699L2.30258 0.688217C2.12224 0.49505 1.87975 0.383009 1.62485 0.374977Z" fill="white"/>
</svg>
