<svg width="355" height="665" viewBox="0 0 355 665" fill="none" xmlns="http://www.w3.org/2000/svg">
<path opacity="0.15" fill-rule="evenodd" clip-rule="evenodd" d="M332.493 0C148.865 0 0 148.873 0 332.498C0 516.124 148.865 665 332.493 665C516.121 665 665 516.124 665 332.498C665 148.873 516.121 0 332.493 0ZM332.493 1.21285C515.468 1.21285 663.787 149.526 663.787 332.498C663.787 515.47 515.468 663.787 332.493 663.787C149.518 663.787 1.1992 515.47 1.1992 332.498C1.1992 149.526 149.518 1.21285 332.493 1.21285ZM332.493 35.3537C168.391 35.3537 35.3542 168.399 35.3542 332.498C35.3542 496.598 168.391 629.646 332.493 629.646C496.596 629.646 629.642 496.598 629.642 332.498C629.642 168.399 496.596 35.3535 332.493 35.3537ZM332.493 36.4367C496.012 36.4367 628.559 168.982 628.559 332.498C628.559 496.015 496.012 628.56 332.493 628.56C168.975 628.56 36.427 496.015 36.427 332.498C36.427 168.982 168.975 36.4367 332.493 36.4367Z" fill="white"/>
</svg>
