<svg width="27" height="27" viewBox="0 0 27 27" fill="none" xmlns="http://www.w3.org/2000/svg">
<path d="M8.64864 26.7642C6.39059 25.8735 4.43233 24.3989 2.92697 22.4568C1.28499 20.338 0.386146 18.1269 0.0645149 15.4185C-0.0415902 14.5017 -0.0149992 12.6653 0.130895 11.7721C0.846442 7.06594 3.82336 3.08132 8.06093 1.15874C11.067 -0.205319 14.6125 -0.373375 17.7784 0.698699C22.1499 2.17935 25.5446 5.94878 26.6361 10.5354C26.8815 11.5575 26.9608 12.2361 26.9939 13.4469C27.1 17.3271 25.8164 20.6867 23.1439 23.5315C21.8215 24.9386 20.0973 26.0932 18.2835 26.787C17.6668 27.024 17.436 27.0529 17.1939 26.9246C16.8557 26.7453 16.8563 26.7503 16.8231 24.0085C16.8231 21.8121 16.7565 21.4889 16.6969 21.2263C16.5576 20.7971 16.3717 20.443 16.1529 20.1963C16.0468 20.0775 15.9743 19.9681 15.9942 19.9518C15.9942 19.9382 16.2529 19.8911 16.5447 19.8449C18.9168 19.4863 20.5728 18.4497 21.35 16.8359C21.7943 15.9177 22.0349 14.8447 22.0866 13.5816C22.1529 11.9205 21.8157 10.8034 20.874 9.59333L20.7266 9.40268L20.84 9.03381C20.9859 8.56323 21.033 7.65663 20.9468 7.09955C20.8805 6.87614 20.8208 6.48022 20.7412 6.22049L20.5939 5.74801L20.1244 5.75257C19.6867 5.75644 19.6001 5.7797 19.0186 6.01533C18.3952 6.26997 17.5394 6.72245 17.113 7.02204L16.8944 7.17498L16.4751 7.07302C14.5141 6.59362 12.4883 6.59367 10.53 7.07219L10.1187 7.17291L9.74796 6.92631C9.28375 6.6187 8.23074 6.10078 7.67236 5.90467C7.36068 5.79467 7.14252 5.75513 6.82884 5.75174L6.40466 5.74759L6.29132 6.09864C5.97301 7.07524 5.91967 8.2491 6.16504 9.0334L6.27837 9.40185L6.13266 9.59291C5.19098 10.803 4.85074 11.9201 4.91838 13.5812C4.9847 14.8235 5.19132 15.8032 5.62104 16.7414C6.11841 17.8215 6.77514 18.4822 7.9476 19.0844C8.70757 19.4748 9.63893 19.7539 10.5057 19.8523C11.0561 19.9135 11.063 19.9231 10.8376 20.1988C10.5723 20.5207 10.4 20.8864 10.2806 21.3767C10.2143 21.6028 10.147 21.8072 10.1139 21.8309C10.0476 21.8581 9.88231 21.9292 9.67673 21.9951C9.37167 22.0949 9.18608 22.1161 8.59521 22.1161C7.90752 22.1165 7.87052 22.1108 7.5396 21.9491C7.08202 21.725 6.70522 21.3655 6.34313 20.8035C5.95187 20.1998 5.70057 19.9249 5.30533 19.6683C4.84112 19.3702 4.52098 19.2593 4.11048 19.2559C3.75901 19.253 3.58592 19.3237 3.58592 19.4657C3.58592 19.5791 3.9446 19.9664 4.18334 20.1097C4.68071 20.4078 5.19479 21.1303 5.61457 22.1161C5.78036 22.5086 5.88651 22.6712 6.16504 22.9587C6.82156 23.6381 7.55954 23.8522 9.04368 23.7988C9.50789 23.7852 9.94768 23.7583 10.02 23.7515L10.1527 23.7379V25.0745C10.1527 26.5701 10.1519 26.7053 9.84025 26.8968C9.58162 27.0578 9.31909 27.0284 8.64864 26.7642Z" fill="white"/>
</svg>
