<svg width="8" height="4" viewBox="0 0 8 4" fill="none" xmlns="http://www.w3.org/2000/svg">
<path d="M4.6508 0.0188584C4.60716 0.0188426 4.56393 0.0273917 4.52361 0.0439665C4.4833 0.0605413 4.44669 0.0848121 4.41583 0.115453C4.38497 0.146094 4.3605 0.182533 4.3438 0.222573C4.3271 0.262614 4.31847 0.30543 4.31847 0.348771C4.31847 0.392113 4.3271 0.435039 4.3438 0.475079C4.3605 0.515119 4.38497 0.551558 4.41583 0.582199C4.44669 0.61284 4.4833 0.637111 4.52361 0.653686C4.56393 0.670261 4.60716 0.67881 4.6508 0.678794H6.17416L4.12715 2.712C3.99529 2.84277 3.95033 2.86351 3.98626 2.85201C4.0229 2.86458 3.97194 2.84295 3.84548 2.712L2.93589 1.80855C2.80403 1.67795 2.71774 1.56803 2.53032 1.50758C2.39721 1.46447 2.25293 1.46447 2.1196 1.50758C1.93204 1.56812 1.84569 1.6779 1.71414 1.80855L0.0972525 3.41513C0.0349698 3.47701 0 3.56095 0 3.64845C0 3.73595 0.0349698 3.81989 0.0972525 3.88177C0.159547 3.94362 0.244025 3.97836 0.332106 3.97836C0.420186 3.97836 0.504665 3.94362 0.566959 3.88177L2.18396 2.27507C2.31581 2.14448 2.36074 2.12371 2.32463 2.13539C2.3244 2.13539 2.32486 2.13539 2.32463 2.13539C2.28799 2.12281 2.33971 2.1443 2.46618 2.27507L3.37566 3.17863C3.50751 3.30923 3.59367 3.41915 3.78123 3.4796C3.91434 3.52271 4.05796 3.52271 4.19129 3.4796C4.37883 3.41906 4.46518 3.30928 4.59674 3.17863L6.64376 1.14543V2.6586C6.64377 2.7461 6.67872 2.83004 6.74101 2.89192C6.80331 2.95379 6.88777 2.98851 6.97587 2.98851C7.06396 2.98851 7.14843 2.95379 7.21072 2.89192C7.27301 2.83004 7.30808 2.7461 7.30808 2.6586V0.35853C7.30809 0.352059 7.30791 0.345583 7.30753 0.339123C7.30758 0.336129 7.30758 0.333126 7.30753 0.330132C7.30741 0.326537 7.30723 0.322977 7.30699 0.319387C7.30715 0.313341 7.30715 0.307233 7.30699 0.301187C7.30681 0.300587 7.30662 0.300031 7.30644 0.299433C7.30676 0.291052 7.30676 0.282595 7.30644 0.274215C7.30648 0.271221 7.30648 0.268218 7.30644 0.265224C7.3065 0.261632 7.3065 0.258072 7.30644 0.254479C7.30646 0.252084 7.30646 0.249748 7.30644 0.247353C7.30648 0.244359 7.30648 0.241356 7.30644 0.238362C7.30627 0.237163 7.30607 0.23594 7.30589 0.234744C7.30142 0.226826 7.29664 0.219134 7.29153 0.211609C7.28703 0.204118 7.28224 0.196795 7.27716 0.189681C7.2769 0.188482 7.27657 0.187259 7.27629 0.186063C7.27631 0.183668 7.27631 0.181221 7.27629 0.178826C7.27635 0.175234 7.27635 0.171674 7.27629 0.168081C7.27633 0.165087 7.27633 0.162084 7.27629 0.159091C7.27165 0.154155 7.26686 0.149371 7.26192 0.144728C7.26196 0.141734 7.26196 0.138731 7.26192 0.135737C7.26195 0.133342 7.26195 0.131005 7.26192 0.12861C7.26196 0.125616 7.26196 0.122613 7.26192 0.11962C7.26193 0.118422 7.26193 0.117199 7.26192 0.116001C7.26193 0.114804 7.26193 0.113581 7.26192 0.112383C7.26195 0.109988 7.26195 0.107651 7.26192 0.105256C7.26193 0.104059 7.26193 0.102836 7.26192 0.101638C7.25614 0.0960338 7.25024 0.0905814 7.24405 0.0854112C7.23823 0.0804157 7.23222 0.0756304 7.22607 0.0710481C7.22608 0.0698505 7.22608 0.0687371 7.22607 0.0675395C7.22138 0.0638184 7.2166 0.0601481 7.21171 0.056685C7.20696 0.0547788 7.20218 0.0529986 7.19734 0.0513125C7.19735 0.0501149 7.19735 0.0488919 7.19734 0.0476943C7.19112 0.0438945 7.18473 0.0403331 7.17827 0.0369494C7.17296 0.0338067 7.16751 0.0308028 7.16204 0.0279587C7.15728 0.0266551 7.15249 0.0254318 7.14768 0.0243405C7.14768 0.024137 7.14768 0.0245441 7.14768 0.0243405C7.14054 0.0210924 7.13332 0.0175396 7.12597 0.0148017C7.12597 0.0145981 7.12597 0.0150053 7.12597 0.0148017C7.11831 0.0127309 7.11062 0.0102922 7.10283 0.00877137C7.10283 0.00847197 7.10283 0.00907076 7.10283 0.00877137C7.09688 0.00740993 7.09087 0.00530932 7.08485 0.00427604C7.07676 0.00277808 7.06859 0.00155423 7.0604 0.000657852C7.05406 0.000255501 7.04768 4.06634e-05 7.04132 0L4.6508 0.0188584Z" fill="#F04438"/>
</svg>
