<svg width="27" height="27" viewBox="0 0 27 27" fill="none" xmlns="http://www.w3.org/2000/svg">
<path d="M7.45015 26.899C6.08829 26.7794 5.31299 26.5786 4.15451 26.042C2.27889 25.174 0.867143 23.3938 0.334764 21.2256C0.0556138 20.0966 -0.0651253 15.5857 0.0345711 10.6102C0.134268 6.00192 0.214627 5.46019 1.03413 3.91719C1.51268 3.00714 2.70554 1.73957 3.54764 1.23666C5.32157 0.177358 6.75066 0.00241705 13.6649 2.48007e-05C18.9043 -0.00190229 20.6133 0.107902 21.9519 0.530534C24.3213 1.27918 25.981 3.04931 26.7274 5.62796C26.9932 6.55649 27 6.6604 27 13.5061C27 21.2132 27.0004 21.0787 26.1676 22.8695C25.689 23.8887 24.4945 25.2066 23.5421 25.7755C22.5598 26.3623 21.2364 26.753 19.7516 26.8937C18.304 27.0313 8.99685 27.035 7.4469 26.9067L7.45015 26.899ZM19.995 24.3495C21.3276 24.1747 22.1248 23.8459 22.8752 23.1603C23.6375 22.464 24.0864 21.6824 24.3762 20.5524C24.5623 19.8096 24.5887 19.0472 24.5887 13.5061C24.5887 6.69136 24.516 6.34687 23.8407 5.03094C23.3954 4.21963 22.3897 3.32415 21.5722 3.01841C20.2821 2.53531 19.4228 2.47761 13.5514 2.47695C7.67459 2.47562 6.82829 2.53664 5.52891 3.01841C4.71206 3.32409 3.70175 4.21963 3.26043 5.03094C2.54527 6.34202 2.51629 6.69269 2.51562 13.5061C2.51562 18.9904 2.58877 19.8155 2.7217 20.5366C2.98756 21.5826 3.30686 22.2032 3.92896 22.8768C5.00635 24.0451 5.97571 24.3598 8.84564 24.4732C11.6737 24.5848 18.8006 24.5056 19.995 24.3495ZM12.5323 20.3755C9.61521 19.8878 7.3255 17.7238 6.73131 14.8936C6.50533 13.8288 6.50533 13.1835 6.73131 12.1186C7.25637 9.62206 9.20205 7.528 11.6772 6.7993C12.7067 6.49628 14.5626 6.52135 15.6008 6.85892C18.4681 7.77681 20.5454 10.5469 20.5434 13.4505C20.5434 16.7912 18.0667 19.7487 14.7813 20.3346C13.7458 20.5193 13.3997 20.5264 12.5323 20.3755ZM15.4028 17.5705C16.334 17.1445 17.0984 16.3953 17.561 15.4529C17.9265 14.7145 17.9585 14.567 17.9585 13.4477C17.9585 12.3029 17.8868 12.1996 17.5545 11.4851C17.056 10.5687 16.3034 9.85199 15.3882 9.42304C14.7967 9.14594 14.5468 9.10222 13.5579 9.10222C12.5682 9.10222 12.319 9.14195 11.7275 9.42304C10.7684 9.87226 10.0103 10.6138 9.545 11.5581C9.1861 12.288 9.15394 12.451 9.15394 13.5061C9.15394 14.5637 9.22598 14.7226 9.545 15.4627C10.1166 16.6315 11.2227 17.5401 12.435 17.8463C13.2186 18.0437 14.6617 17.9127 15.4028 17.5705ZM20.1118 7.78366C19.2903 7.42615 18.9332 6.44387 19.328 5.62918C19.6271 5.00653 20.1132 4.69835 20.7884 4.69835C21.4611 4.69835 21.9472 5.00622 22.2456 5.62309C22.6643 6.47912 22.3192 7.42612 21.4359 7.78974C20.9374 7.99574 20.5957 7.99432 20.1118 7.77636V7.78366Z" fill="white"/>
</svg>
