<svg width="27" height="27" viewBox="0 0 27 27" fill="none" xmlns="http://www.w3.org/2000/svg">
<path d="M4.57638 26.9853C3.62322 26.9003 2.70881 26.543 1.92545 25.9475C1.66676 25.7528 1.18254 25.26 0.986205 24.9956C0.442299 24.2636 0.146589 23.5515 0 22.6161C0 22.428 0 22.0148 0 13.4894V4.55952L0.0663948 4.31334C0.238853 3.21214 0.730785 2.2454 1.49955 1.47472C2.26831 0.704045 3.23277 0.2157 4.33185 0.0402078L4.57638 5.59797e-05H13.4733C23.0606 5.59797e-05 22.4573 -0.00528877 22.9256 0.0884711C23.6679 0.237982 24.3373 0.541014 24.9774 1.01845C25.2427 1.21581 25.732 1.70275 25.9263 1.95898C26.4636 2.66812 26.785 3.42509 26.9336 4.33605L27 4.57615V13.3426C27 19.485 27 22.1761 27 22.3322C26.9204 23.2824 26.588 24.1713 26.0348 24.9291C25.1639 26.1161 23.8361 26.8607 22.3702 26.9849C22.1248 27.0049 4.90055 27.0052 4.66707 26.9849L4.57638 26.9853ZM8.28801 19.7324C8.28801 17.9862 8.28801 15.1633 8.28801 13.4594V10.3613H6.19415H4.10028V15.2075C4.10028 17.8729 4.10028 20.6957 4.10028 21.4805V22.9073H6.18767H8.27506L8.28801 19.7324ZM14.5259 19.0811V15.2545L14.5923 15.0874C14.6851 14.6748 14.9571 14.1953 15.2708 13.8865C15.7484 13.4154 16.4377 13.2188 17.1428 13.3528C17.8751 13.4916 18.3288 13.9985 18.5112 14.8826C18.6107 15.365 18.6033 15.1075 18.61 19.1752V22.9073H20.7135H22.8171V19.0284C22.8171 16.5195 22.8171 15.0686 22.8171 14.9195C22.6778 13.1104 22.0594 11.7863 20.9629 10.9603C20.3859 10.5264 19.6879 10.2554 18.8561 10.1439C18.5444 10.104 17.7946 10.1039 17.4975 10.1439C17.0265 10.2103 16.6252 10.3265 16.2538 10.5073C15.6369 10.8069 15.1423 11.2608 14.67 11.9576C14.5705 12.1071 14.5584 12.1192 14.5518 12.0781C14.5518 12.0515 14.5518 11.763 14.5518 11.4328C14.5518 11.1025 14.5518 10.8096 14.5518 10.781C14.5518 10.7544 14.5518 10.6466 14.5518 10.545V10.3604H12.4385H10.3252V13.4424C10.3252 15.1377 10.3252 17.9605 10.3252 19.7154V22.9061H12.4434H14.5615L14.5259 19.0811ZM6.67672 8.65136C7.1344 8.55035 7.50615 8.35635 7.79734 8.0653C8.26165 7.60082 8.46885 6.95456 8.36736 6.29173C8.22807 5.35871 7.60589 4.71597 6.65405 4.5218C6.4219 4.47529 5.79511 4.48218 5.56097 4.5287C4.63102 4.73137 4.02718 5.31932 3.85737 6.18668C3.85737 6.34616 3.85737 6.8338 3.85737 6.99215C3.9436 7.43338 4.13022 7.77271 4.44197 8.08031C4.76699 8.39993 5.13806 8.58459 5.63222 8.67163C5.83784 8.70486 6.47176 8.69787 6.67672 8.65136Z" fill="white"/>
</svg>
