<svg width="42" height="41" viewBox="0 0 42 41" fill="none" xmlns="http://www.w3.org/2000/svg">
<path d="M12.542 17.1482C14.3052 16.4991 16.0195 18.2135 15.3705 19.9767L11.5242 30.426C11.1538 31.4321 9.86534 31.7153 9.10727 30.9571L1.56158 23.4114C0.803518 22.6534 1.08671 21.3648 2.09277 20.9946L12.542 17.1482Z" fill="url(#paint0_linear_6_184)"/>
<path d="M12.542 17.1482C14.3052 16.4991 16.0195 18.2135 15.3705 19.9767L11.5242 30.426C11.1538 31.4321 9.86534 31.7153 9.10727 30.9571L1.56158 23.4114C0.803518 22.6534 1.08671 21.3648 2.09277 20.9946L12.542 17.1482Z" fill="url(#paint1_radial_6_184)"/>
<path d="M12.542 17.1482C14.3052 16.4991 16.0195 18.2135 15.3705 19.9767L11.5242 30.426C11.1538 31.4321 9.86534 31.7153 9.10727 30.9571L1.56158 23.4114C0.803518 22.6534 1.08671 21.3648 2.09277 20.9946L12.542 17.1482Z" fill="url(#paint2_linear_6_184)"/>
<path d="M21.3545 25.9602C23.1177 25.3112 24.832 27.0255 24.183 28.7887L20.3366 39.238C19.9664 40.2441 18.6778 40.5273 17.9198 39.7691L10.3741 32.2234C9.61602 31.4654 9.89921 30.1768 10.9053 29.8066L21.3545 25.9602Z" fill="url(#paint3_linear_6_184)"/>
<path d="M21.3545 25.9602C23.1177 25.3112 24.832 27.0255 24.183 28.7887L20.3366 39.238C19.9664 40.2441 18.6778 40.5273 17.9198 39.7691L10.3741 32.2234C9.61602 31.4654 9.89921 30.1768 10.9053 29.8066L21.3545 25.9602Z" fill="url(#paint4_radial_6_184)"/>
<path d="M21.3545 25.9602C23.1177 25.3112 24.832 27.0255 24.183 28.7887L20.3366 39.238C19.9664 40.2441 18.6778 40.5273 17.9198 39.7691L10.3741 32.2234C9.61602 31.4654 9.89921 30.1768 10.9053 29.8066L21.3545 25.9602Z" fill="url(#paint5_radial_6_184)"/>
<g filter="url(#filter0_i_6_184)">
<path d="M29.8988 2.21536C29.981 2.18193 30.0748 2.20144 30.1374 2.26442L38.7823 10.9745C38.8444 11.0371 38.8634 11.1304 38.8302 11.2121C36.7601 16.2931 33.906 21.6981 30.0845 25.5198C26.363 29.2412 20.0684 32.4131 14.3847 34.7455L6.31885 26.6797C8.65125 20.9961 11.8231 14.7015 15.5446 10.9799C19.3779 7.14663 24.8042 4.2869 29.8988 2.21536Z" fill="url(#paint6_linear_6_184)"/>
<path d="M29.8988 2.21536C29.981 2.18193 30.0748 2.20144 30.1374 2.26442L38.7823 10.9745C38.8444 11.0371 38.8634 11.1304 38.8302 11.2121C36.7601 16.2931 33.906 21.6981 30.0845 25.5198C26.363 29.2412 20.0684 32.4131 14.3847 34.7455L6.31885 26.6797C8.65125 20.9961 11.8231 14.7015 15.5446 10.9799C19.3779 7.14663 24.8042 4.2869 29.8988 2.21536Z" fill="url(#paint7_radial_6_184)"/>
<path d="M29.8988 2.21536C29.981 2.18193 30.0748 2.20144 30.1374 2.26442L38.7823 10.9745C38.8444 11.0371 38.8634 11.1304 38.8302 11.2121C36.7601 16.2931 33.906 21.6981 30.0845 25.5198C26.363 29.2412 20.0684 32.4131 14.3847 34.7455L6.31885 26.6797C8.65125 20.9961 11.8231 14.7015 15.5446 10.9799C19.3779 7.14663 24.8042 4.2869 29.8988 2.21536Z" fill="url(#paint8_radial_6_184)"/>
<path d="M29.8988 2.21536C29.981 2.18193 30.0748 2.20144 30.1374 2.26442L38.7823 10.9745C38.8444 11.0371 38.8634 11.1304 38.8302 11.2121C36.7601 16.2931 33.906 21.6981 30.0845 25.5198C26.363 29.2412 20.0684 32.4131 14.3847 34.7455L6.31885 26.6797C8.65125 20.9961 11.8231 14.7015 15.5446 10.9799C19.3779 7.14663 24.8042 4.2869 29.8988 2.21536Z" fill="url(#paint9_radial_6_184)"/>
<path d="M29.8988 2.21536C29.981 2.18193 30.0748 2.20144 30.1374 2.26442L38.7823 10.9745C38.8444 11.0371 38.8634 11.1304 38.8302 11.2121C36.7601 16.2931 33.906 21.6981 30.0845 25.5198C26.363 29.2412 20.0684 32.4131 14.3847 34.7455L6.31885 26.6797C8.65125 20.9961 11.8231 14.7015 15.5446 10.9799C19.3779 7.14663 24.8042 4.2869 29.8988 2.21536Z" fill="url(#paint10_radial_6_184)"/>
</g>
<g filter="url(#filter1_dii_6_184)">
<path d="M32.9833 13.2481C32.9833 15.9731 30.7743 18.1822 28.0492 18.1822C25.3242 18.1822 23.1152 15.9731 23.1152 13.2481C23.1152 10.523 25.3242 8.31396 28.0492 8.31396C30.7743 8.31396 32.9833 10.523 32.9833 13.2481Z" fill="url(#paint11_linear_6_184)"/>
<path d="M32.9833 13.2481C32.9833 15.9731 30.7743 18.1822 28.0492 18.1822C25.3242 18.1822 23.1152 15.9731 23.1152 13.2481C23.1152 10.523 25.3242 8.31396 28.0492 8.31396C30.7743 8.31396 32.9833 10.523 32.9833 13.2481Z" fill="url(#paint12_radial_6_184)"/>
</g>
<path d="M31.4671 13.2479C31.4671 15.1345 29.9377 16.6638 28.0511 16.6638C26.1647 16.6638 24.6353 15.1345 24.6353 13.2479C24.6353 11.3614 26.1647 9.83203 28.0511 9.83203C29.9377 9.83203 31.4671 11.3614 31.4671 13.2479Z" fill="url(#paint13_radial_6_184)"/>
<g filter="url(#filter2_i_6_184)">
<path d="M0.559612 40.3768C-0.478955 39.3382 -0.0623004 32.1358 3.60954 30.667C3.60954 30.667 7.28142 29.1983 9.64759 31.5492C12.0137 33.9 10.9533 36.542 10.9533 36.542C9.91476 39.6577 5.4933 40.8961 4.97404 40.3769C4.68725 40.0901 5.2037 39.568 4.97406 39.3384C4.74442 39.1087 4.38985 39.3708 3.41621 39.8576C2.72384 40.2038 0.975034 40.7923 0.559612 40.3768Z" fill="url(#paint14_radial_6_184)"/>
<path d="M0.559612 40.3768C-0.478955 39.3382 -0.0623004 32.1358 3.60954 30.667C3.60954 30.667 7.28142 29.1983 9.64759 31.5492C12.0137 33.9 10.9533 36.542 10.9533 36.542C9.91476 39.6577 5.4933 40.8961 4.97404 40.3769C4.68725 40.0901 5.2037 39.568 4.97406 39.3384C4.74442 39.1087 4.38985 39.3708 3.41621 39.8576C2.72384 40.2038 0.975034 40.7923 0.559612 40.3768Z" fill="url(#paint15_radial_6_184)"/>
</g>
<path d="M5.9004 27.8181C6.76078 26.9578 8.15573 26.9578 9.0161 27.8181L14.2089 33.0109C15.0693 33.8713 15.0693 35.2663 14.2089 36.1267C13.3485 36.9871 11.9536 36.9871 11.0932 36.1267L5.9004 30.9338C5.04004 30.0734 5.04004 28.6785 5.9004 27.8181Z" fill="url(#paint16_linear_6_184)"/>
<path d="M5.9004 27.8181C6.76078 26.9578 8.15573 26.9578 9.0161 27.8181L14.2089 33.0109C15.0693 33.8713 15.0693 35.2663 14.2089 36.1267C13.3485 36.9871 11.9536 36.9871 11.0932 36.1267L5.9004 30.9338C5.04004 30.0734 5.04004 28.6785 5.9004 27.8181Z" fill="url(#paint17_radial_6_184)"/>
<path d="M5.9004 27.8181C6.76078 26.9578 8.15573 26.9578 9.0161 27.8181L14.2089 33.0109C15.0693 33.8713 15.0693 35.2663 14.2089 36.1267C13.3485 36.9871 11.9536 36.9871 11.0932 36.1267L5.9004 30.9338C5.04004 30.0734 5.04004 28.6785 5.9004 27.8181Z" fill="url(#paint18_radial_6_184)"/>
<path d="M39.8475 1.21752C38.4564 -0.173517 36.017 -0.016052 34.2392 0.594405C32.9628 1.03269 31.6214 1.5243 30.2527 2.07286C30.1552 2.11192 30.1293 2.23774 30.2034 2.31225L38.7353 10.9028C38.8095 10.9776 38.9361 10.952 38.9753 10.8542C39.5307 9.47096 40.0278 8.11518 40.4707 6.82578C41.0728 5.07182 41.5572 2.92732 39.8475 1.21752Z" fill="url(#paint19_linear_6_184)"/>
<path d="M39.8475 1.21752C38.4564 -0.173517 36.017 -0.016052 34.2392 0.594405C32.9628 1.03269 31.6214 1.5243 30.2527 2.07286C30.1552 2.11192 30.1293 2.23774 30.2034 2.31225L38.7353 10.9028C38.8095 10.9776 38.9361 10.952 38.9753 10.8542C39.5307 9.47096 40.0278 8.11518 40.4707 6.82578C41.0728 5.07182 41.5572 2.92732 39.8475 1.21752Z" fill="url(#paint20_radial_6_184)"/>
<path d="M39.8475 1.21752C38.4564 -0.173517 36.017 -0.016052 34.2392 0.594405C32.9628 1.03269 31.6214 1.5243 30.2527 2.07286C30.1552 2.11192 30.1293 2.23774 30.2034 2.31225L38.7353 10.9028C38.8095 10.9776 38.9361 10.952 38.9753 10.8542C39.5307 9.47096 40.0278 8.11518 40.4707 6.82578C41.0728 5.07182 41.5572 2.92732 39.8475 1.21752Z" fill="url(#paint21_linear_6_184)"/>
<path d="M16.9482 21.5544C18.7115 20.9054 20.4258 22.6197 19.7767 24.383L15.9304 34.8322C15.5601 35.8383 14.2716 36.1215 13.5136 35.3633L5.96783 27.8176C5.20977 27.0596 5.49296 25.7711 6.49902 25.4008L16.9482 21.5544Z" fill="url(#paint22_linear_6_184)"/>
<path d="M16.9482 21.5544C18.7115 20.9054 20.4258 22.6197 19.7767 24.383L15.9304 34.8322C15.5601 35.8383 14.2716 36.1215 13.5136 35.3633L5.96783 27.8176C5.20977 27.0596 5.49296 25.7711 6.49902 25.4008L16.9482 21.5544Z" fill="url(#paint23_radial_6_184)"/>
<path d="M16.9482 21.5544C18.7115 20.9054 20.4258 22.6197 19.7767 24.383L15.9304 34.8322C15.5601 35.8383 14.2716 36.1215 13.5136 35.3633L5.96783 27.8176C5.20977 27.0596 5.49296 25.7711 6.49902 25.4008L16.9482 21.5544Z" fill="url(#paint24_radial_6_184)"/>
<path d="M16.9482 21.5544C18.7115 20.9054 20.4258 22.6197 19.7767 24.383L15.9304 34.8322C15.5601 35.8383 14.2716 36.1215 13.5136 35.3633L5.96783 27.8176C5.20977 27.0596 5.49296 25.7711 6.49902 25.4008L16.9482 21.5544Z" fill="url(#paint25_radial_6_184)"/>
<g filter="url(#filter3_f_6_184)">
<path d="M10.5212 29.3814L18.783 22.9097L13.4588 32.3647L10.5212 29.3814Z" fill="url(#paint26_linear_6_184)"/>
</g>
<defs>
<filter id="filter0_i_6_184" x="5.98747" y="1.53647" width="32.859" height="33.2091" filterUnits="userSpaceOnUse" color-interpolation-filters="sRGB">
<feFlood flood-opacity="0" result="BackgroundImageFix"/>
<feBlend mode="normal" in="SourceGraphic" in2="BackgroundImageFix" result="shape"/>
<feColorMatrix in="SourceAlpha" type="matrix" values="0 0 0 0 0 0 0 0 0 0 0 0 0 0 0 0 0 0 127 0" result="hardAlpha"/>
<feOffset dx="-0.331377" dy="-0.662753"/>
<feGaussianBlur stdDeviation="0.99413"/>
<feComposite in2="hardAlpha" operator="arithmetic" k2="-1" k3="1"/>
<feColorMatrix type="matrix" values="0 0 0 0 0.745098 0 0 0 0 0.772549 0 0 0 0 0.952941 0 0 0 1 0"/>
<feBlend mode="normal" in2="shape" result="effect1_innerShadow_6_184"/>
</filter>
<filter id="filter1_dii_6_184" x="21.7897" y="7.31983" width="12.5192" height="12.5192" filterUnits="userSpaceOnUse" color-interpolation-filters="sRGB">
<feFlood flood-opacity="0" result="BackgroundImageFix"/>
<feColorMatrix in="SourceAlpha" type="matrix" values="0 0 0 0 0 0 0 0 0 0 0 0 0 0 0 0 0 0 127 0" result="hardAlpha"/>
<feOffset dy="0.331377"/>
<feGaussianBlur stdDeviation="0.662753"/>
<feComposite in2="hardAlpha" operator="out"/>
<feColorMatrix type="matrix" values="0 0 0 0 0.866667 0 0 0 0 0.764706 0 0 0 0 0.847059 0 0 0 1 0"/>
<feBlend mode="normal" in2="BackgroundImageFix" result="effect1_dropShadow_6_184"/>
<feBlend mode="normal" in="SourceGraphic" in2="effect1_dropShadow_6_184" result="shape"/>
<feColorMatrix in="SourceAlpha" type="matrix" values="0 0 0 0 0 0 0 0 0 0 0 0 0 0 0 0 0 0 127 0" result="hardAlpha"/>
<feOffset dx="-0.132551" dy="0.132551"/>
<feGaussianBlur stdDeviation="0.0662753"/>
<feComposite in2="hardAlpha" operator="arithmetic" k2="-1" k3="1"/>
<feColorMatrix type="matrix" values="0 0 0 0 0.721569 0 0 0 0 0.690196 0 0 0 0 0.701961 0 0 0 1 0"/>
<feBlend mode="normal" in2="shape" result="effect2_innerShadow_6_184"/>
<feColorMatrix in="SourceAlpha" type="matrix" values="0 0 0 0 0 0 0 0 0 0 0 0 0 0 0 0 0 0 127 0" result="hardAlpha"/>
<feOffset dx="0.132551" dy="-0.132551"/>
<feGaussianBlur stdDeviation="0.0662753"/>
<feComposite in2="hardAlpha" operator="arithmetic" k2="-1" k3="1"/>
<feColorMatrix type="matrix" values="0 0 0 0 0.615686 0 0 0 0 0.560784 0 0 0 0 0.65098 0 0 0 1 0"/>
<feBlend mode="normal" in2="effect2_innerShadow_6_184" result="effect3_innerShadow_6_184"/>
</filter>
<filter id="filter2_i_6_184" x="0.0664062" y="29.9488" width="11.1238" height="10.5708" filterUnits="userSpaceOnUse" color-interpolation-filters="sRGB">
<feFlood flood-opacity="0" result="BackgroundImageFix"/>
<feBlend mode="normal" in="SourceGraphic" in2="BackgroundImageFix" result="shape"/>
<feColorMatrix in="SourceAlpha" type="matrix" values="0 0 0 0 0 0 0 0 0 0 0 0 0 0 0 0 0 0 127 0" result="hardAlpha"/>
<feOffset dy="-0.265101"/>
<feGaussianBlur stdDeviation="0.265101"/>
<feComposite in2="hardAlpha" operator="arithmetic" k2="-1" k3="1"/>
<feColorMatrix type="matrix" values="0 0 0 0 0.847059 0 0 0 0 0.505882 0 0 0 0 0.360784 0 0 0 1 0"/>
<feBlend mode="normal" in2="shape" result="effect1_innerShadow_6_184"/>
</filter>
<filter id="filter3_f_6_184" x="9.19573" y="21.5842" width="10.9127" height="12.1061" filterUnits="userSpaceOnUse" color-interpolation-filters="sRGB">
<feFlood flood-opacity="0" result="BackgroundImageFix"/>
<feBlend mode="normal" in="SourceGraphic" in2="BackgroundImageFix" result="shape"/>
<feGaussianBlur stdDeviation="0.662753" result="effect1_foregroundBlur_6_184"/>
</filter>
<linearGradient id="paint0_linear_6_184" x1="8.91328" y1="22.421" x2="1.56953" y2="21.2113" gradientUnits="userSpaceOnUse">
<stop stop-color="#EE2452"/>
<stop offset="1" stop-color="#F63E7A"/>
</linearGradient>
<radialGradient id="paint1_radial_6_184" cx="0" cy="0" r="1" gradientUnits="userSpaceOnUse" gradientTransform="translate(0.521797 22.0615) rotate(-19.9576) scale(11.7525 1.99816)">
<stop offset="0.163866" stop-color="#FF8DB0"/>
<stop offset="1" stop-color="#FF8DB0" stop-opacity="0"/>
</radialGradient>
<linearGradient id="paint2_linear_6_184" x1="4.20426" y1="25.9832" x2="5.40169" y2="24.8156" gradientUnits="userSpaceOnUse">
<stop offset="0.491189" stop-color="#DD467C"/>
<stop offset="1" stop-color="#DD467C" stop-opacity="0"/>
</linearGradient>
<linearGradient id="paint3_linear_6_184" x1="23.2794" y1="28.83" x2="14.1469" y2="35.9963" gradientUnits="userSpaceOnUse">
<stop stop-color="#F83267"/>
<stop offset="1" stop-color="#FF3190"/>
</linearGradient>
<radialGradient id="paint4_radial_6_184" cx="0" cy="0" r="1" gradientUnits="userSpaceOnUse" gradientTransform="translate(18.4142 29.6102) rotate(86.482) scale(11.2199 9.67328)">
<stop offset="0.756562" stop-color="#E76CBE" stop-opacity="0"/>
<stop offset="0.951296" stop-color="#E76CBE"/>
</radialGradient>
<radialGradient id="paint5_radial_6_184" cx="0" cy="0" r="1" gradientUnits="userSpaceOnUse" gradientTransform="translate(16.7618 35.5312) rotate(-57.3464) scale(7.74106 3.40026)">
<stop stop-color="#FF5898"/>
<stop offset="1" stop-color="#FF5898" stop-opacity="0"/>
</radialGradient>
<linearGradient id="paint6_linear_6_184" x1="16.8076" y1="9.73649" x2="29.7509" y2="22.7717" gradientUnits="userSpaceOnUse">
<stop stop-color="#CCBBC0"/>
<stop offset="1" stop-color="#EAD2EC"/>
</linearGradient>
<radialGradient id="paint7_radial_6_184" cx="0" cy="0" r="1" gradientUnits="userSpaceOnUse" gradientTransform="translate(32.2052 28.6913) rotate(-142.447) scale(24.4942 46.0428)">
<stop offset="0.811143" stop-color="#E7E5E5" stop-opacity="0"/>
<stop offset="1" stop-color="#E7E5E5"/>
</radialGradient>
<radialGradient id="paint8_radial_6_184" cx="0" cy="0" r="1" gradientUnits="userSpaceOnUse" gradientTransform="translate(10.4853 28.2984) rotate(-56.9293) scale(14.3993 6.76756)">
<stop offset="0.281006" stop-color="#B5A3A5"/>
<stop offset="1" stop-color="#B5A3A5" stop-opacity="0"/>
</radialGradient>
<radialGradient id="paint9_radial_6_184" cx="0" cy="0" r="1" gradientUnits="userSpaceOnUse" gradientTransform="translate(6.31885 26.5086) rotate(-73.625) scale(12.7652 2.16303)">
<stop offset="0.207885" stop-color="#B28F96"/>
<stop offset="1" stop-color="#B28F96" stop-opacity="0"/>
</radialGradient>
<radialGradient id="paint10_radial_6_184" cx="0" cy="0" r="1" gradientUnits="userSpaceOnUse" gradientTransform="translate(36.8193 7.44159) rotate(137.284) scale(19.3508 6.0082)">
<stop stop-color="#FAECF1"/>
<stop offset="1" stop-color="#FAECF1" stop-opacity="0"/>
</radialGradient>
<linearGradient id="paint11_linear_6_184" x1="23.1152" y1="12.4093" x2="32.9833" y2="13.2481" gradientUnits="userSpaceOnUse">
<stop stop-color="#A796A0"/>
<stop offset="1" stop-color="#A5959F"/>
</linearGradient>
<radialGradient id="paint12_radial_6_184" cx="0" cy="0" r="1" gradientUnits="userSpaceOnUse" gradientTransform="translate(28.0492 13.2481) rotate(90) scale(4.93409 4.93409)">
<stop offset="0.586538" stop-color="#93859B"/>
<stop offset="1" stop-color="#93859B" stop-opacity="0"/>
</radialGradient>
<radialGradient id="paint13_radial_6_184" cx="0" cy="0" r="1" gradientUnits="userSpaceOnUse" gradientTransform="translate(28.0511 16.6638) rotate(-90) scale(7.11696 6.54513)">
<stop stop-color="#72CDFF"/>
<stop offset="0.738019" stop-color="#66ACFF"/>
<stop offset="1" stop-color="#3B57F4"/>
</radialGradient>
<radialGradient id="paint14_radial_6_184" cx="0" cy="0" r="1" gradientUnits="userSpaceOnUse" gradientTransform="translate(9.03091 32.6118) rotate(135) scale(8.52822 6.70339)">
<stop stop-color="#D46213"/>
<stop offset="1" stop-color="#FF9542"/>
</radialGradient>
<radialGradient id="paint15_radial_6_184" cx="0" cy="0" r="1" gradientUnits="userSpaceOnUse" gradientTransform="translate(9.19611 39.5509) rotate(-131.186) scale(10.5376 11.1049)">
<stop offset="0.870944" stop-color="#FFC484" stop-opacity="0"/>
<stop offset="1" stop-color="#FFC484"/>
</radialGradient>
<linearGradient id="paint16_linear_6_184" x1="5.51522" y1="29.2437" x2="13.5933" y2="37.1842" gradientUnits="userSpaceOnUse">
<stop stop-color="#452860"/>
<stop offset="1" stop-color="#51509F"/>
</linearGradient>
<radialGradient id="paint17_radial_6_184" cx="0" cy="0" r="1" gradientUnits="userSpaceOnUse" gradientTransform="translate(7.02987 28.5093) rotate(77.8285) scale(2.39465 2.11573)">
<stop stop-color="#8E839A"/>
<stop offset="1" stop-color="#8E839A" stop-opacity="0"/>
</radialGradient>
<radialGradient id="paint18_radial_6_184" cx="0" cy="0" r="1" gradientUnits="userSpaceOnUse" gradientTransform="translate(7.58391 29.9265) rotate(47.9357) scale(9.12432 4.78279)">
<stop offset="0.860492" stop-color="#6175B9" stop-opacity="0"/>
<stop offset="1" stop-color="#6175B9"/>
</radialGradient>
<linearGradient id="paint19_linear_6_184" x1="39.8539" y1="1.22395" x2="34.4547" y2="6.62321" gradientUnits="userSpaceOnUse">
<stop stop-color="#FF3745"/>
<stop offset="1" stop-color="#ED224B"/>
</linearGradient>
<radialGradient id="paint20_radial_6_184" cx="0" cy="0" r="1" gradientUnits="userSpaceOnUse" gradientTransform="translate(39.2103 3.38531) rotate(135) scale(12.1124 2.90768)">
<stop offset="0.189394" stop-color="#FF5971"/>
<stop offset="1" stop-color="#FF5971" stop-opacity="0"/>
</radialGradient>
<linearGradient id="paint21_linear_6_184" x1="34.9264" y1="6.98278" x2="35.4657" y2="6.42052" gradientUnits="userSpaceOnUse">
<stop stop-color="#D2575E"/>
<stop offset="1" stop-color="#F93251" stop-opacity="0"/>
</linearGradient>
<linearGradient id="paint22_linear_6_184" x1="19.2671" y1="22.0641" x2="9.74067" y2="31.5906" gradientUnits="userSpaceOnUse">
<stop stop-color="#FF2644"/>
<stop offset="1" stop-color="#FF2982"/>
</linearGradient>
<radialGradient id="paint23_radial_6_184" cx="0" cy="0" r="1" gradientUnits="userSpaceOnUse" gradientTransform="translate(6.15937 25.5258) rotate(-20.8651) scale(10.9537 2.86757)">
<stop stop-color="#FF95AF"/>
<stop offset="1" stop-color="#FF95AF" stop-opacity="0"/>
</radialGradient>
<radialGradient id="paint24_radial_6_184" cx="0" cy="0" r="1" gradientUnits="userSpaceOnUse" gradientTransform="translate(4.92805 26.8273) rotate(44.7044) scale(6.77125 2.00017)">
<stop offset="0.381871" stop-color="#E14678"/>
<stop offset="1" stop-color="#E14678" stop-opacity="0"/>
</radialGradient>
<radialGradient id="paint25_radial_6_184" cx="0" cy="0" r="1" gradientUnits="userSpaceOnUse" gradientTransform="translate(14.0079 25.1126) rotate(84.6743) scale(10.879 11.5932)">
<stop offset="0.831791" stop-color="#E67BC7" stop-opacity="0"/>
<stop offset="1" stop-color="#E67BC7"/>
</radialGradient>
<linearGradient id="paint26_linear_6_184" x1="17.5437" y1="23.5982" x2="11.4851" y2="29.9322" gradientUnits="userSpaceOnUse">
<stop stop-color="#FF5970"/>
<stop offset="1" stop-color="#FF5794"/>
</linearGradient>
</defs>
</svg>
