<svg width="206" height="37" viewBox="0 0 206 37" fill="none" xmlns="http://www.w3.org/2000/svg">
<path d="M3.60559 1.61393H10.6107V7.86363H15.6586V12.8428H10.6107V23.1101C10.6107 25.2735 11.2975 25.6856 13.6326 25.6856H15.6586V30.7677H11.1945C5.52858 30.7677 3.60559 29.6689 3.60559 24.3463V12.8428H0V7.86363H3.60559V1.61393ZM39.4212 23.6252C37.3608 29.0508 32.5534 31.3858 27.9863 31.3858C20.5347 31.3858 15.4182 26.8874 15.4182 19.2298C15.4182 11.8813 20.9811 7.24552 27.7116 7.24552C35.3348 7.24552 40.0049 13.0145 39.5242 21.1528H22.5264C22.7324 24.415 25.2735 25.8916 27.8146 25.8916C30.493 25.8916 32.1756 24.9301 32.9654 23.5909L39.4212 23.6252ZM22.6294 16.8948H32.5534C32.416 14.0103 30.4243 12.5681 27.7459 12.5681C25.2048 12.5681 23.0071 13.8729 22.6294 16.8948ZM63.6301 16.2767H57.1057C56.4876 13.5982 54.805 12.6711 52.7447 12.6711C50.2379 12.6711 47.7655 14.388 47.7655 19.2985C47.7655 24.2777 50.2379 25.9259 52.7447 25.9259C55.3201 25.9259 56.934 24.5867 57.4491 22.389H63.9735C62.3939 29.1881 56.8997 31.3515 52.2983 31.3515C44.7437 31.3515 40.5887 26.5097 40.5887 19.1955C40.5887 11.8813 45.3618 7.21119 52.2983 7.21119C57.0371 7.21119 62.2566 9.37454 63.6301 16.2767ZM71.7685 10.9198C72.7643 9.20284 75.2711 7.38288 78.8767 7.38288C84.7486 7.38288 86.6029 10.8511 86.6029 17.0665V30.8364H79.5978V18.8521C79.5978 15.5899 79.4948 12.9115 76.0952 12.9115C73.0734 12.9115 71.8028 14.8688 71.8028 19.1611V30.9051H64.7977V0H71.8028L71.7685 10.9198ZM102.742 14.6284C102.262 12.9115 100.476 12.4307 98.2782 12.4307C95.8401 12.4307 94.6383 13.0145 94.6383 14.1477C94.6383 15.2122 95.4624 15.8303 97.454 16.208L101.746 16.9635C107.241 17.9593 109.885 19.6076 109.885 23.6252C109.885 28.7761 105.146 31.3858 98.7933 31.3858C92.6809 31.3858 88.3542 28.8104 87.5644 23.3849H94.0888C94.7069 25.5825 96.4926 26.2693 98.8963 26.2693C101.403 26.2693 103.154 25.5825 103.154 24.209C103.154 23.2132 102.262 22.5264 99.5487 22.08L95.4624 21.3932C91.0327 20.6721 88.0108 18.44 88.0108 14.388C88.0108 9.82095 92.8183 7.3142 98.4842 7.3142C103.704 7.3142 108.477 9.40888 109.335 14.6627L102.742 14.6284ZM113.49 1.61393H120.496V7.86363H125.543V12.8428H120.496V23.1101C120.496 25.2735 121.182 25.6856 123.517 25.6856H125.509V30.7677H121.079C115.413 30.7677 113.49 29.6689 113.49 24.3463V12.8428H109.885V7.86363H113.49V1.61393ZM141.545 15.5899C141.545 12.8428 140.24 11.95 137.665 11.95C135.399 11.95 133.888 13.1175 133.579 15.3152H127.02C127.363 10.9885 131.45 7.17685 138.249 7.17685C144.876 7.17685 148.619 9.85529 148.482 16.8261L148.379 21.8053V24.209C148.379 26.7157 148.55 29.4285 148.894 30.8364H141.992L141.889 28.0549C140.172 30.493 137.459 31.3858 134.162 31.3858C129.801 31.3858 126.23 28.8447 126.23 24.6554C126.23 19.0238 132.583 17.2038 141.477 16.5171L141.545 15.5899ZM141.751 20.6377C136.841 21.1185 133.579 21.5992 133.579 24.1403C133.579 25.6169 134.987 26.6127 136.807 26.6127C139.622 26.6127 141.751 25.4108 141.751 21.1871V20.6377ZM164.552 14.6284C163.934 14.5254 163.248 14.4567 162.629 14.491C159.23 14.491 157.479 15.7272 157.479 19.2985V30.8021H150.439V7.86363H157.204V12.2247C158.268 9.47756 160.191 7.86363 163.454 7.72627H163.969C164.175 7.72627 164.346 7.72627 164.552 7.76061V14.6284ZM180.074 14.6284C179.593 12.9115 177.807 12.4307 175.61 12.4307C173.172 12.4307 171.97 13.0145 171.97 14.1477C171.97 15.2122 172.794 15.8303 174.785 16.208L179.044 16.9635C184.538 17.9593 187.182 19.6076 187.182 23.6252C187.182 28.7761 182.443 31.3858 176.09 31.3858C170.012 31.3858 165.651 28.8104 164.861 23.3849H171.386C172.004 25.5825 173.79 26.2693 176.193 26.2693C178.7 26.2693 180.451 25.5825 180.451 24.209C180.451 23.2132 179.559 22.5264 176.846 22.08L172.759 21.3932C168.33 20.6721 165.342 18.44 165.342 14.388C165.342 9.82095 170.15 7.3142 175.816 7.3142C181.035 7.3142 185.808 9.40888 186.667 14.6627L180.074 14.6284Z" fill="#D8DBDE"/>
<path d="M187.045 36.7427V30.8364H206V36.7427H187.045Z" fill="#D8DBDE"/>
</svg>
