<svg width="27" height="27" viewBox="0 0 27 27" fill="none" xmlns="http://www.w3.org/2000/svg">
<path d="M0.121709 26.8799C6.80854 19.1648 10.467 14.9334 10.467 14.9156C10.467 14.9156 8.13881 11.5652 5.29192 7.49747C2.4457 3.42984 0.110212 0.0824588 0.102236 0.0585232C0.102236 0.00170281 0.500881 0.00173402 4.09755 0.00173402H8.10909L11.5169 4.87173C13.3921 7.54989 14.9475 9.73392 14.9475 9.73392C14.9475 9.73392 16.8046 7.60541 19.0499 5.01305C21.2946 2.42077 23.195 0.232958 23.2708 0.150426L23.4039 0H24.582H25.7602L20.8821 5.6321C18.1987 8.72938 16.0109 11.2764 16.0202 11.2919C16.0202 11.2919 17.9734 14.0885 20.3417 17.4711C22.71 20.8538 25.1767 24.3784 25.8235 25.3037L27 26.9857H22.969H18.9396L15.2542 21.7195C13.2263 18.8228 11.5445 16.4528 11.5445 16.4528C11.5445 16.4528 9.46459 18.826 6.95204 21.726L2.3855 27H1.19275H0L0.121709 26.8799ZM22.7093 24.0101C22.2773 23.3872 18.6127 18.1562 14.5727 12.3835L7.22629 1.88835H5.3974C3.97429 1.88835 3.57433 1.88832 3.58961 1.94514C3.58961 1.94514 7.03469 6.87324 11.2216 12.8543C15.4079 18.8354 19.0581 24.052 19.3339 24.4467L19.8338 25.1632H21.6643H23.4964L22.7093 24.0101Z" fill="white"/>
</svg>
