<svg width="37" height="27" viewBox="0 0 37 27" fill="none" xmlns="http://www.w3.org/2000/svg">
<path d="M15.3483 26.9828C10.1516 26.8979 5.9307 26.6237 4.33067 26.2571C2.52973 25.8443 1.20633 24.5317 0.739085 22.6963C0.464233 21.6359 0.242232 19.6824 0.104806 17.4318C-0.170045 12.4382 0.105374 6.21564 0.817371 4.02918C1.26237 2.5618 2.4218 1.33384 3.8242 0.847197C4.92165 0.466278 7.76154 0.221597 13.078 0.0523222C15.0078 -0.0176148 22.0937 -0.0174041 23.9869 0.0527367C29.4754 0.230635 32.2025 0.471828 33.4164 0.886154C34.2704 1.17609 35.1521 1.83612 35.6723 2.57039C36.332 3.51115 36.5915 4.40308 36.9089 6.91817C37.0005 7.37921 37 7.93727 37 13.215C37 18.896 37.0005 19.0203 36.9089 19.7742C36.765 21.2246 36.5815 22.3994 36.3721 23.0478C35.914 24.502 34.7766 25.6834 33.3892 26.146C32.0961 26.5772 28.5058 26.8491 22.5043 26.9707C20.9474 27.0047 17.0275 27.0167 15.3483 26.9828ZM19.7195 16.3912C22.2717 14.8669 24.4068 13.5913 24.4598 13.5565L24.5589 13.4865L19.9831 10.7521C17.4676 9.24807 15.2968 7.95274 15.1613 7.87384L14.9185 7.73087V13.4881V19.2458L15.0111 19.1981C15.0111 19.1778 17.1794 17.9064 19.7323 16.3821L19.7195 16.3912Z" fill="white"/>
</svg>
